<svg width="557" height="122" viewBox="0 0 557 122" fill="none" xmlns="http://www.w3.org/2000/svg">
<g clip-path="url(#clip0_1_32)">
<rect width="77" height="122" fill="#3C09A8"/>
<rect x="79" width="35" height="122" fill="#4613B2"/>
<rect x="116" width="63" height="122" fill="#501DBC"/>
<rect x="181" width="70" height="122" fill="#5A27C6"/>
<rect x="253" width="76" height="122" fill="#6431D0"/>
<rect x="331" width="76" height="122" fill="#7845E4"/>
<rect x="409" width="76" height="122" fill="#824FEE"/>
<rect x="487" width="70" height="122" fill="#8C59F8"/>
<path d="M36.3984 112.465C30.9785 112.465 26.0957 111.122 21.75 108.437C17.3555 105.751 13.8154 102.138 11.1299 97.5967C8.49316 93.0557 7.1748 87.9775 7.1748 82.3623V34.8281C7.1748 29.3594 8.51758 24.3789 11.2031 19.8867C13.8398 15.3457 17.3799 11.7324 21.8232 9.04688C26.2666 6.3125 31.125 4.94531 36.3984 4.94531C41.916 4.94531 46.8965 6.26367 51.3398 8.90039C55.7832 11.5859 59.2988 15.1748 61.8867 19.667C64.5234 24.1592 65.8418 29.2129 65.8418 34.8281V41.7129C65.8418 42.1035 65.5977 42.2988 65.1094 42.2988H48.2637C47.873 42.2988 47.6777 42.1035 47.6777 41.7129V36C47.6777 32.1914 46.6035 29.042 44.4551 26.5518C42.3066 24.0615 39.6211 22.8164 36.3984 22.8164C33.5176 22.8164 30.9541 24.0127 28.708 26.4053C26.4619 28.7979 25.3389 31.6055 25.3389 34.8281V82.3623C25.3389 85.6338 26.4375 88.4658 28.6348 90.8584C30.832 93.2021 33.4199 94.374 36.3984 94.374C39.6211 94.374 42.3066 93.2266 44.4551 90.9316C46.6035 88.5879 47.6777 85.7314 47.6777 82.3623V74.9648H37.2041C36.667 74.9648 36.3984 74.7207 36.3984 74.2324V57.46C36.3984 56.9717 36.667 56.7275 37.2041 56.7275H65.2559C65.6465 56.7275 65.8418 56.9717 65.8418 57.46V82.3623C65.8418 87.9775 64.5234 93.0557 61.8867 97.5967C59.2012 102.138 55.6611 105.751 51.2666 108.437C46.8721 111.122 41.916 112.465 36.3984 112.465Z" fill="#F7EEE7"/>
<path d="M104.657 111H87.665C87.1768 111 86.9326 110.756 86.9326 110.268L87.0791 7.21582C87.0791 6.8252 87.2744 6.62988 87.665 6.62988H104.511C104.901 6.62988 105.097 6.8252 105.097 7.21582L105.243 110.268C105.243 110.756 105.048 111 104.657 111Z" fill="#F7EEE7"/>
<path d="M139.511 111H122.665C122.177 111 121.933 110.756 121.933 110.268L122.226 7.21582C122.226 6.8252 122.421 6.62988 122.812 6.62988H170.858C171.347 6.62988 171.591 6.8252 171.591 7.21582V24.1348C171.591 24.5254 171.396 24.7207 171.005 24.7207H140.243V48.0117H171.005C171.396 48.0117 171.591 48.2559 171.591 48.7441L171.737 65.7363C171.737 66.127 171.493 66.3223 171.005 66.3223H140.243V110.268C140.243 110.756 139.999 111 139.511 111Z" fill="#F7EEE7"/>
<path d="M214.421 112.465C209.099 112.465 204.191 111.098 199.699 108.363C195.256 105.629 191.691 101.991 189.006 97.4502C186.369 92.8604 185.051 87.8311 185.051 82.3623V75.4775C185.051 74.9404 185.295 74.6719 185.783 74.6719H202.629C203.02 74.6719 203.215 74.9404 203.215 75.4775V82.3623C203.215 85.6338 204.313 88.4658 206.511 90.8584C208.708 93.2021 211.345 94.374 214.421 94.374C217.546 94.374 220.207 93.1777 222.404 90.7852C224.602 88.3438 225.7 85.5361 225.7 82.3623C225.7 78.7002 223.308 75.502 218.522 72.7676C217.741 72.2793 216.716 71.6934 215.446 71.0098C214.226 70.2773 212.761 69.4473 211.052 68.5195C209.343 67.5918 207.683 66.6885 206.071 65.8096C204.46 64.8818 202.897 64.0029 201.384 63.1729C195.915 59.9502 191.838 55.9219 189.152 51.0879C186.516 46.2051 185.197 40.7363 185.197 34.6816C185.197 29.1152 186.564 24.0859 189.299 19.5938C192.033 15.1504 195.598 11.6348 199.992 9.04688C204.436 6.41016 209.245 5.0918 214.421 5.0918C219.743 5.0918 224.626 6.41016 229.069 9.04688C233.513 11.7324 237.053 15.2969 239.689 19.7402C242.375 24.1836 243.718 29.1641 243.718 34.6816V46.9863C243.718 47.377 243.522 47.5723 243.132 47.5723H226.286C225.896 47.5723 225.7 47.377 225.7 46.9863L225.554 34.6816C225.554 31.166 224.455 28.3096 222.258 26.1123C220.061 23.915 217.448 22.8164 214.421 22.8164C211.345 22.8164 208.708 23.9883 206.511 26.332C204.313 28.6758 203.215 31.459 203.215 34.6816C203.215 37.9531 203.898 40.6875 205.266 42.8848C206.682 45.082 209.245 47.1816 212.956 49.1836C213.347 49.3789 214.25 49.8672 215.666 50.6484C217.082 51.4297 218.645 52.3086 220.354 53.2852C222.111 54.2129 223.698 55.0674 225.114 55.8486C226.53 56.5811 227.385 57.0205 227.678 57.167C232.658 59.9502 236.589 63.3682 239.47 67.4209C242.399 71.4736 243.864 76.4541 243.864 82.3623C243.864 88.0752 242.546 93.2021 239.909 97.7432C237.224 102.284 233.659 105.873 229.216 108.51C224.772 111.146 219.841 112.465 214.421 112.465Z" fill="#F7EEE7"/>
<path d="M278.511 111H261.519C261.128 111 260.933 110.756 260.933 110.268L261.079 7.21582C261.079 6.8252 261.323 6.62988 261.812 6.62988H278.511C278.999 6.62988 279.243 6.8252 279.243 7.21582L279.097 48.0117H301.582V7.21582C301.582 6.8252 301.777 6.62988 302.168 6.62988H318.867C319.355 6.62988 319.6 6.8252 319.6 7.21582L319.893 110.268C319.893 110.756 319.648 111 319.16 111H302.314C301.826 111 301.582 110.756 301.582 110.268V66.1758H279.097V110.268C279.097 110.756 278.901 111 278.511 111Z" fill="#F7EEE7"/>
<path d="M368.691 112.465C363.369 112.465 358.462 111.098 353.97 108.363C349.526 105.629 345.938 101.991 343.203 97.4502C340.518 92.8604 339.175 87.8311 339.175 82.3623L339.321 34.8281C339.321 29.2617 340.664 24.2568 343.35 19.8135C345.986 15.3213 349.551 11.7324 354.043 9.04688C358.535 6.3125 363.418 4.94531 368.691 4.94531C374.16 4.94531 379.067 6.28809 383.413 8.97363C387.808 11.6592 391.323 15.2725 393.96 19.8135C396.646 24.3057 397.988 29.3105 397.988 34.8281L398.135 82.3623C398.135 87.8311 396.816 92.8359 394.18 97.377C391.494 101.967 387.93 105.629 383.486 108.363C379.043 111.098 374.111 112.465 368.691 112.465Z" fill="#F7EEE7"/>
<path d="M446.691 112.465C441.369 112.465 436.462 111.098 431.97 108.363C427.526 105.629 423.938 101.991 421.203 97.4502C418.518 92.8604 417.175 87.8311 417.175 82.3623L417.321 34.8281C417.321 29.2617 418.664 24.2568 421.35 19.8135C423.986 15.3213 427.551 11.7324 432.043 9.04688C436.535 6.3125 441.418 4.94531 446.691 4.94531C452.16 4.94531 457.067 6.28809 461.413 8.97363C465.808 11.6592 469.323 15.2725 471.96 19.8135C474.646 24.3057 475.988 29.3105 475.988 34.8281L476.135 82.3623C476.135 87.8311 474.816 92.8359 472.18 97.377C469.494 101.967 465.93 105.629 461.486 108.363C457.043 111.098 452.111 112.465 446.691 112.465Z" fill="#F7EEE7"/>
<path d="M530.939 111H514.021C513.581 111 513.361 110.756 513.361 110.268V24.7207H493.879C493.391 24.7207 493.146 24.4766 493.146 23.9883L493.293 7.21582C493.293 6.8252 493.488 6.62988 493.879 6.62988H550.861C551.398 6.62988 551.667 6.8252 551.667 7.21582V23.9883C551.667 24.4766 551.472 24.7207 551.081 24.7207H531.379L531.525 110.268C531.525 110.756 531.33 111 530.939 111Z" fill="#F7EEE7"/>
</g>
<defs>
<clipPath id="clip0_1_32">
<rect width="557" height="122" fill="white"/>
</clipPath>
</defs>
</svg>
